<svg id="Layer_1" data-name="Layer 1" xmlns="http://www.w3.org/2000/svg" viewBox="0 0 1147.3 286.73"><defs><style>.cls-1{fill:#f28705;}</style></defs><polygon class="cls-1" points="176.59 0 189.77 13.17 189.77 17.48 107.27 17.48 36.31 224.18 51.7 224.18 64.38 256.8 45.71 256.8 39.73 241.41 10.66 241.41 93.54 0 176.59 0"/><polygon class="cls-1" points="368.89 241.41 339.82 241.41 333.84 256.8 315.18 256.8 327.86 224.18 343.25 224.18 272.29 17.48 189.78 17.48 189.78 13.17 202.96 0 286.02 0 368.89 241.41"/><polygon class="cls-1" points="350.94 251.67 344.95 267.92 199.62 267.92 188.71 259.8 177.39 272.19 192.78 286.73 356.64 286.73 362.69 269.2 377.81 269.2 371.33 251.67 350.94 251.67"/><polygon class="cls-1" points="226.44 257.45 202.33 257.45 188.84 239.8 167.68 267.69 153.41 286.5 21.17 286.5 15.12 268.98 0 268.98 6.48 251.45 26.87 251.45 32.85 267.69 135.35 267.69 188.84 213.06 226.44 257.45"/><path class="cls-1" d="M402.43,515.45" transform="translate(-445.23 -215.27)"/><path class="cls-1" d="M46,360" transform="translate(-445.23 -215.27)"/><path class="cls-1" d="M953.78,215.35q43,0,43,31.38,0,21.11-18.38,25,18.38,3.88,18.38,26.94,0,29.43-43,29.43H883.24l6.61-8.48V225.4l-6.61-10.05Zm-8.17,47.27q17.45,0,17.44-10.05,0-12.37-17.83-12.38H922.79v22.43Zm-22.82,19V304H946q17.06,0,17-10.59,0-11.83-16.66-11.83Z" transform="translate(-445.23 -215.27)"/><path class="cls-1" d="M1045.79,215.27h38l55,112.83h-46.95l6.62-8.56-5.06-11.6h-53.89l-5.84,11.6,6.62,8.56H999.62l50-104.34Zm1.56,72.11H1085L1066.35,247Z" transform="translate(-445.23 -215.27)"/><path class="cls-1" d="M1239,215.35v33.49l-8.17-6.62h-31.46v77.71L1206,328h-47.27l7-8.49V242.22h-31.3l-8.1,6.62V215.35Z" transform="translate(-445.23 -215.27)"/><path class="cls-1" d="M1363.05,215.35v33.49l-8.18-6.62h-31.46v77.71L1330,328h-47.26l7-8.49V242.22h-31.3l-8.1,6.62V215.35Z" transform="translate(-445.23 -215.27)"/><path class="cls-1" d="M1373.76,215.35h46.48l-6.54,8.49v81h53l9.73-6.93V328.1h-102.7l7-8.48V223.84Z" transform="translate(-445.23 -215.27)"/><path class="cls-1" d="M1486.47,215.35h106.06v30.21l-8.88-7h-57.31v22.11h36.44l8.49-7v36.06l-8.49-7h-36.44v22.11h57.31l8.88-7V328H1486.47l7-8.49v-95.7Z" transform="translate(-445.23 -215.27)"/><path class="cls-1" d="M961.64,374.79q47.77,0,47.77,34.87,0,23.46-20.42,27.78,20.41,4.33,20.42,29.94,0,32.72-47.77,32.72h-78.4l7.35-9.44V386l-7.35-11.16Zm-9.09,52.53q19.4,0,19.39-11.17,0-13.75-19.82-13.76H927.2v24.93ZM927.2,448.43v24.93H953q18.94,0,19-11.77,0-13.15-18.52-13.16Z" transform="translate(-445.23 -215.27)"/><path class="cls-1" d="M1022.19,374.79H1074l-7.7,9.43v68.11q0,22.67,25.62,22.67,25.79,0,25.79-22.24V384.22l-7.27-9.43h51.75l-7.7,9.43v68.54q0,49.25-62.49,49.24t-62.56-50V383.79Z" transform="translate(-445.23 -215.27)"/><path class="cls-1" d="M1173.14,499.92l7.79-9.34V384.22l-7.79-9.43h67q69.59,0,69.58,63.08,0,62.06-68.71,62.05Zm45.18-25.87h17.82q34.71,0,34.71-36.35,0-36.87-35.57-36.87h-17Z" transform="translate(-445.23 -215.27)"/><path class="cls-1" d="M1316.19,499.92l7.79-9.34V384.22l-7.79-9.43h67q69.57,0,69.57,63.08,0,62.06-68.71,62.05Zm45.18-25.87h17.82q34.71,0,34.71-36.35,0-36.87-35.57-36.87h-17Z" transform="translate(-445.23 -215.27)"/><path class="cls-1" d="M1537.56,458.21V491l7.36,9h-52.53l7.79-9.43V458.21l-55-83.42h53.48l-7.53,6.92L1522.85,433l32.63-51.58-8-6.66h44.66v.34Z" transform="translate(-445.23 -215.27)"/></svg>