<svg id="Layer_1" data-name="Layer 1" xmlns="http://www.w3.org/2000/svg" viewBox="0 0 810.22 614.89"><defs><style>.cls-1{fill:#f28705;}</style></defs><polygon class="cls-1" points="378.71 0 406.96 28.23 406.96 37.49 230.04 37.49 77.86 480.75 110.87 480.75 138.06 550.72 98.03 550.72 85.2 517.72 22.86 517.72 200.59 0 378.71 0"/><polygon class="cls-1" points="791.09 517.72 728.76 517.72 715.92 550.72 675.9 550.72 703.09 480.75 736.09 480.75 583.92 37.49 407 37.49 407 28.23 435.25 0 613.36 0 791.09 517.72"/><polygon class="cls-1" points="752.59 539.72 739.76 574.55 428.08 574.55 404.69 557.13 380.41 583.72 413.41 614.88 764.83 614.88 777.8 577.3 810.22 577.3 796.32 539.72 752.59 539.72"/><polygon class="cls-1" points="485.61 552.11 433.89 552.11 404.98 514.25 359.58 574.07 328.99 614.41 45.4 614.41 32.41 576.82 0 576.82 13.9 539.24 57.62 539.24 70.46 574.07 290.26 574.07 404.98 456.9 485.61 552.11"/><path class="cls-1" d="M402.43,515.45" transform="translate(-652.02 -30)"/><path class="cls-1" d="M46,360" transform="translate(-652.02 -30)"/></svg>