<svg id="Layer_1" data-name="Layer 1" xmlns="http://www.w3.org/2000/svg" viewBox="0 0 55 58">
    <g fill="#a0a0a0">
        <path
            d="M55.89,5.89c-1,0-6.85,5.89-6.85,5.89s-.53-7-2.11-6.43S42.18,9.1,42.18,9.1a21.77,21.77,0,0,0-5.27-5.35A39.57,39.57,0,0,0,29,0a39.57,39.57,0,0,0-7.91,3.75A21.77,21.77,0,0,0,15.82,9.1s-3.17-3.21-4.75-3.75S9,11.78,9,11.78,3.16,5.89,2.11,5.89s-.53,10.17,0,12.85S3.16,22,3.69,24.63s1.2,13.88,3.69,18.74,7.38,6.42,9.49,7.49C18.21,51.54,23.73,58,29,58s10.79-6.46,12.13-7.14c2.11-1.07,7-2.64,9.49-7.49s3.16-16.07,3.69-18.74,1-3.21,1.58-5.89S57,5.89,55.89,5.89ZM11.78,35.34c-2.11-2.15-6.33-7.5-2.11-11.78,2.11-2.14,6.33-1.07,10.6,3.21s5.2,11.74,4.17,12.85S16,39.62,11.78,35.34Zm14.11,16A1.9,1.9,0,0,1,23.28,51a2,2,0,0,1-.38-2.65,1.88,1.88,0,0,1,2.61.38A2,2,0,0,1,25.89,51.35Zm9-.38a1.9,1.9,0,0,1-2.61.38,2,2,0,0,1,.38-2.65,1.88,1.88,0,0,1,2.61-.38A2,2,0,0,1,34.89,51ZM46.22,35.34C42,39.62,34.6,40.72,33.56,39.62s-.09-8.57,4.17-12.85,8.49-5.35,10.6-3.21C52.55,27.84,48.33,33.19,46.22,35.34Z"
            transform="translate(-1.5)"/>
    </g>
</svg>
