<?xml version="1.0" encoding="utf-8"?>
<!-- Generator: Adobe Illustrator 25.2.0, SVG Export Plug-In . SVG Version: 6.00 Build 0)  -->
<svg version="1.1" id="Layer_1" xmlns="http://www.w3.org/2000/svg" xmlns:xlink="http://www.w3.org/1999/xlink" x="0px" y="0px"
     viewBox="0 0 58 58" style="enable-background:new 0 0 58 58;" xml:space="preserve">
    <g fill="#a0a0a0">
<path d="M49.4,13.4L41,6.6L37,16.8l3.2,1.2c0,0,0,0.1,0,0.1c0.3,1.1,0.9,3.3,2.1,7.7c0.5,1.9,0.6,3.4,0.5,4.7
	c-0.1,1-0.3,1.8-0.7,2.5c-0.6,1.1-1.5,2.1-3,3.1c-0.7,0.5-1.6,1-2.6,1.4l-4.6-17.3l2.7-4.1L22.6,0l-2.2,19.9l4.4,2.2l4.6,17.3
	c-0.9,0.1-1.7,0.2-2.4,0.1c-1.2,0-2.3-0.2-3.1-0.5c-1.3-0.4-2.3-1.1-3.2-2.2c-0.9-1.1-1.7-2.6-2.2-4.7c-1.2-4.4-1.8-6.6-2.1-7.7
	c0,0,0-0.1,0-0.1l2.1-2.7l-8.4-6.8L6.1,25.1l3.2,1.2c0,0,0,0.1,0,0.1c0.3,1.1,0.9,3.3,2.1,7.7c0.7,2.6,1.7,4.8,3.1,6.8
	c1.1,1.4,2.4,2.7,3.8,3.7c2.2,1.4,4.9,2.2,7.6,2.4c1.7,0.1,3.5,0,5.3-0.3l2.3,8.6c0.5,2,2.5,3.1,4.5,2.6c2-0.5,3.1-2.5,2.6-4.5
	l-2.3-8.6c1.4-0.6,2.8-1.2,4-1.9c1.6-1,3-2.1,4.2-3.5c1.8-2,2.9-4.5,3.4-7.1c0.4-2.6,0.2-5.4-0.6-8.3c-1.2-4.4-1.8-6.6-2.1-7.7
	c0,0,0-0.1,0-0.1L49.4,13.4z"/>
    </g>
</svg>
