<?xml version="1.0" encoding="utf-8"?>
<!-- Generator: Adobe Illustrator 25.2.0, SVG Export Plug-In . SVG Version: 6.00 Build 0)  -->
<svg version="1.1" id="Layer_1" xmlns="http://www.w3.org/2000/svg" xmlns:xlink="http://www.w3.org/1999/xlink" x="0px" y="0px"
	 viewBox="0 0 58 58" style="enable-background:new 0 0 58 58;" xml:space="preserve">
<g fill="#a0a0a0">
	<path d="M34.4,5.8c3,3.2,6,8.2,6,8.2s-5.4-0.2-10.9,0.1c-5.5,0.3-14.6,4.6-14.6,4.6s-0.5-2.1,4.9-6.9C25,7.1,27.7,0,27.7,0
		S32.2,3.5,34.4,5.8z M48.8,23.4c0,0-3.2-6-16.9-5.8C19.7,17.8,7.5,28.5,7.9,39.5c0.2,6.2,3.3,7.6,3.3,7.6s0.5-6.8,6.8-13.2
		c5.4-5.5,8.9-8.6,20-10C44.9,22.9,48.8,23.4,48.8,23.4z M49.6,41.6c0,0,1.3-2.8-0.2-5.8c-1.7-3.3-6.5-7.1-14.9-6.1
		c-5.9,0.7-14,6.2-16.6,12.5c-2.2,5.3,0.3,11.5,3.7,14c4.1,3,14.3,3,21.4-3.9c4-3.9,2.5-8.5-1.1-8.8c-7-0.6-8.7,2.9-8.7,2.9
		s3.2-0.2,3.3,1.1s-9.7,8-11.8,1c-1-3.3,5.2-6.6,12.3-9.3C45.4,35.8,49.6,41.6,49.6,41.6z"/>
</g>
</svg>
