<?xml version="1.0" encoding="utf-8"?>
<!-- Generator: Adobe Illustrator 25.2.0, SVG Export Plug-In . SVG Version: 6.00 Build 0)  -->
<svg version="1.1" id="Layer_1" xmlns="http://www.w3.org/2000/svg" xmlns:xlink="http://www.w3.org/1999/xlink" x="0px" y="0px"
     viewBox="0 0 58 58" style="enable-background:new 0 0 58 58;" xml:space="preserve">
    <g fill="#a0a0a0">
	<path d="M42.4,54.6c-3-0.6-5.5-0.3-6.3-2.1c-0.4-0.8-2.1-5.2-1.4-8c0.5-2.3,2.5-6.9,3.2-8.6c-1.1-0.2-2.2-0.7-3.3-1.1
		c-1.8-0.5-2.6-1.4-2.8-2.3c0,0,0,0,0,0c0-0.2-0.1-0.4-0.1-0.6c0-1.9,2.8-2.7,5.7-4c0.3-0.2,0.7-0.3,1-0.5c0.3-0.2,0.6-0.3,0.9-0.5
		c4.6-2.7,3.6-4.7,3.6-8.1c0-5.7-0.2-6.6-0.2-9.1c0-5.3,3.4-5.3,6.8-8.2c-0.8-1-3-1.4-5.3-1.5h0c-0.2,0-0.3,0-0.5,0H31.1h-4.2H14.3
		c-0.2,0-0.3,0-0.5,0h0c-2.4,0-4.5,0.5-5.3,1.5c3.4,2.9,6.8,2.9,6.8,8.2c0,2.5-0.2,3.5-0.2,9.1c0,3.4-0.9,5.4,3.6,8.1
		c0.3,0.2,0.6,0.3,0.9,0.5c0.3,0.2,0.7,0.3,1,0.5c2.9,1.3,5.7,2.1,5.7,4c0,0.2,0,0.4-0.1,0.6c0,0,0,0,0,0c-0.2,0.9-1,1.8-2.8,2.3
		c-1.1,0.4-2.2,0.9-3.3,1.1c0.7,1.7,2.7,6.3,3.2,8.6c0.7,2.8-1,7.2-1.4,8c-0.8,1.7-3.2,1.4-6.3,2.1c-3,0.6-3.2,3.4-3.2,3.4h1.7h4.7
		h8.1h4.2h8.1h4.7h1.7C45.6,58,45.4,55.2,42.4,54.6z"/>
</g>
</svg>
