<?xml version="1.0" encoding="utf-8"?>
<!-- Generator: Adobe Illustrator 25.2.0, SVG Export Plug-In . SVG Version: 6.00 Build 0)  -->
<svg version="1.1" id="Layer_1" xmlns="http://www.w3.org/2000/svg" xmlns:xlink="http://www.w3.org/1999/xlink" x="0px" y="0px"
	 viewBox="0 0 58 58" style="enable-background:new 0 0 58 58;" xml:space="preserve">
<g fill="#a0a0a0">
	<path d="M45.9,18.2c-1.2-6.6-6.2-11.9-12.7-13.6V0h-8.4v4.7c-6.5,1.6-11.5,6.9-12.7,13.6L29,11.8L45.9,18.2z"/>
	<path d="M11.9,43.8v4.3L29,58l17.1-9.8v-4.3L29,50.4L11.9,43.8z"/>
	<path d="M29,16L9,23.6v15.3l20,7.6l20-7.6V23.6L29,16z M16.7,35.2c0,0.4-0.1,0.8-0.3,1.1l-3.5-0.6c0-0.1,0-0.3,0-0.4v-7.8
		c0-0.2,0-0.4,0.1-0.5l3.4-0.6c0.2,0.3,0.4,0.7,0.4,1.2L16.7,35.2L16.7,35.2z M26.2,37.4c0,0.2,0,0.4-0.1,0.6l-3.8-0.7V25.1
		c0,0,0,0,0,0l3.7-0.7c0.1,0.2,0.1,0.5,0.1,0.7V37.4z M35.7,37.3L31.9,38c-0.1-0.2-0.1-0.4-0.1-0.6V25.1c0-0.2,0-0.5,0.1-0.7
		l3.7,0.7c0,0,0,0,0,0V37.3z M45.2,35.2c0,0.1,0,0.3,0,0.4l-3.5,0.6c-0.2-0.3-0.3-0.7-0.3-1.1v-7.8c0-0.4,0.1-0.8,0.4-1.2l3.4,0.6
		c0,0.2,0.1,0.3,0.1,0.5L45.2,35.2L45.2,35.2z"/>
</g>
</svg>
