<?xml version="1.0" encoding="utf-8"?>
<!-- Generator: Adobe Illustrator 25.2.0, SVG Export Plug-In . SVG Version: 6.00 Build 0)  -->
<svg version="1.1" id="Layer_1" xmlns="http://www.w3.org/2000/svg" xmlns:xlink="http://www.w3.org/1999/xlink" x="0px" y="0px"
	 viewBox="0 0 58 58" style="enable-background:new 0 0 58 58;" xml:space="preserve">
<style type="text/css">
	.st0{clip-path:url(#SVGID_2_);}
</style>
    <g fill="#a0a0a0">
	<g>
		<defs>
			<rect id="SVGID_1_" x="6" width="46" height="58"/>
		</defs>
		<clipPath id="SVGID_2_">
			<use xlink:href="#SVGID_1_"  style="overflow:visible;"/>
		</clipPath>
		<g class="st0">
			<path d="M21.6,20.1c0.1-0.3,0.1-0.7-0.1-1L14.1,6.9L10.5,0L9.2,6.6h0L6,22.1c-0.1,0.4,0.1,0.8,0.4,1.2l7.1,6.7l5.6,26.3
				c0.2,1.2,1.5,1.9,2.9,1.8c0,0,2.3-1.3,2.1-2.4l-5.7-27L21.6,20.1z"/>
			<path d="M16.8,28.2c0,0,14.8,1.1,15.2-2.3c0.2-2-4.8-1.2-4.7-3.7c0-1.2,9.3-3.7,22.5-4.1c-2,3.6-7.2,8.2-7.2,8.2s6,3.3,9.5,7.7
				c-4.2,1-15.4-1-16.4,0.8c0.5,2.2,1.7,6.7,1.7,6.7s-8,4.2-17.7,1.9c-1.1-5.2-0.6-11.2-0.6-11.2L16.8,28.2z"/>
		</g>
	</g>
</g>
</svg>
