<?xml version="1.0" encoding="utf-8"?>
<!-- Generator: Adobe Illustrator 25.2.0, SVG Export Plug-In . SVG Version: 6.00 Build 0)  -->
<svg version="1.1" id="Layer_1" xmlns="http://www.w3.org/2000/svg" xmlns:xlink="http://www.w3.org/1999/xlink" x="0px" y="0px"
	 viewBox="0 0 58 58" style="enable-background:new 0 0 58 58;" xml:space="preserve">
<g fill="#a0a0a0">
	<path d="M57.8,24.7c-0.1-0.5-0.2-0.9-0.3-1.4c-0.2-0.5-0.3-1-0.5-1.5c-0.1-0.3-0.2-0.5-0.3-0.8c-0.1-0.3-0.2-0.5-0.4-0.8
		c-0.2-0.3-0.3-0.5-0.5-0.8L55.5,19c-0.1-0.1-0.1-0.2-0.2-0.3c-1.1-1.6-2.6-3.2-4.6-4.4c-2-1.2-4.4-2-6.7-2.1
		c-2.3-0.2-4.5,0.2-6.4,0.7c-0.6,0.2-1.2,0.4-1.8,0.6c-2.2,1.5-4.4,3-6.7,4.2c-2.3,1.1-5.4,2.5-8,2c-0.2,0-0.3-0.1-0.5-0.1
		c-1.2,0-2.4-0.2-3-1c-0.1-0.1-0.1-0.2-0.2-0.3c-1-0.6-1.4-1.7-0.9-3.1c0.4-1.2,1.3-2.2,2.3-3.1c1.2-1.2,2.8-2.3,4.5-3.1
		c3.9-2,8.5-2.9,13.1-2.3c2.3,0.3,4.6,1,6.8,2.1c2.2,1.1,4.2,2.6,6,4.4c-1.3-2.2-2.9-4.3-4.8-6.1c-2-1.8-4.3-3.3-6.8-4.4
		c-2.5-1.1-5.3-1.8-8.1-2.1c-2.8-0.3-5.7-0.1-8.6,0.4c-2.9,0.6-5.7,1.5-8.6,3.2c-1.4,0.8-2.8,1.8-4.1,3.2c-0.3,0.4-0.7,0.7-1,1.1
		C6.8,9,6.5,9.4,6.2,9.8c-0.1,0.2-0.3,0.5-0.4,0.7c-0.1,0.3-0.3,0.5-0.4,0.8c-0.1,0.3-0.2,0.6-0.3,0.8l-0.2,0.4
		c-0.1,0.1-0.1,0.2-0.1,0.4C4.3,14.4,4,16,3.9,17.8c-1,1.5-1.8,3.2-2.5,4.9c-0.9,2.5-1.4,5.3-1.5,8c-0.1,2.8,0.4,5.6,1.2,8.4
		c0.8,2.8,2.1,5.4,3.6,7.9c1.6,2.5,3.6,4.8,6.2,6.8c1.3,1,2.7,1.9,4.5,2.6c0.5,0.2,0.9,0.3,1.4,0.5c0.5,0.1,1,0.3,1.5,0.4
		c0.3,0,0.5,0.1,0.8,0.1c0.3,0,0.5,0.1,0.9,0.1c0.3,0,0.6,0,0.9,0l0.5,0c0.2,0,0.2,0,0.4,0c1.9-0.1,4-0.6,6.1-1.7
		c0.6-0.3,1.2-0.7,1.8-1.1c2.3,0.2,4.6,0.1,6.9-0.4c2.6-0.5,5.2-1.5,7.6-2.9c2.4-1.4,4.6-3.3,6.5-5.4c1.9-2.1,3.5-4.6,4.8-7.3
		c1.2-2.7,2.2-5.6,2.5-8.8C58,28.3,58.1,26.5,57.8,24.7z M22.6,43.8c-0.7,1.4-2.2,2-3.7,1.7c-0.1,0-0.2,0-0.2,0
		c-0.7,0-1.5-0.2-2.4-0.5c-1.7-0.7-3.5-1.8-5.2-3.2c-3.3-2.9-5.9-6.8-7.1-11.4c-0.6-2.3-0.8-4.7-0.6-7.1c0.1-1.2,0.3-2.3,0.6-3.5
		c0.2,2.2,1.1,4.4,2.2,6.3c0.9,1.4,1.9,2.6,3,3.6c0.1,0,0.1,0.1,0.2,0.1c2.2,1.8,4.6,3.2,7.2,4.3c2.1,0.9,4,2,5.2,4
		C22.8,39.6,23.5,42,22.6,43.8z M47.6,35.9C47.6,35.9,47.6,35.9,47.6,35.9c0,0.1,0,0.1,0,0.2c-0.7,4.3-2.7,8.6-5.9,12
		c-1.6,1.7-3.5,3.1-5.7,4.2c-1.8,0.9-3.8,1.6-5.8,2c1.2-0.9,2.2-2,3.1-3.2c1.3-1.9,2.2-4,2.7-5.9c0.3-1,0.5-2,0.6-2.9
		c0-0.3,0.1-0.5,0.1-0.8c0.1-3.5,0.4-7,2.1-10.1c1.1-2,4.8-6.5,7.5-5C49.3,28.1,48.3,33.3,47.6,35.9z"/>
</g>
</svg>
