<?xml version="1.0" encoding="utf-8"?>
<!-- Generator: Adobe Illustrator 25.2.0, SVG Export Plug-In . SVG Version: 6.00 Build 0)  -->
<svg version="1.1" id="Layer_1" xmlns="http://www.w3.org/2000/svg" xmlns:xlink="http://www.w3.org/1999/xlink" x="0px" y="0px"
	 viewBox="0 0 58 58" style="enable-background:new 0 0 58 58;" xml:space="preserve">
<style type="text/css">
	.st0{fill:#a0a0a0;}
</style>
<g>
	<path class="st0" d="M45.9,27.9L58,14.6l-18.5-1.4l3.1,2.9l-2.9,1.1c-0.8-1.3-1.7-2.6-2.7-3.7c-1.1-1.2-2.4-2.3-3.7-3.2
		c-1.3-0.9-2.7-1.7-4.1-2.3c-2.9-1.3-5.8-2-8.8-2.4c-1.5-0.2-3-0.3-4.4-0.2c-1.5,0-2.9,0.1-4.4,0.4c2.8,1,5.4,2,7.9,3.2
		c1.5,0.7,2.9,1.4,4.2,2.2L0,33.6l32,9.2c-1.8,3.3-4.2,6.6-6.9,9.7c5.5-2,10.5-5.9,13.9-11.2c0.9-1.3,1.5-2.8,2.2-4.3
		c0.3-0.8,0.5-1.5,0.7-2.3c0.1-0.4,0.2-0.8,0.3-1.2l0.2-1.2l0.2-1.2c0.1-0.4,0-0.8,0.1-1.2c0-0.8,0-1.7,0-2.5l-0.3-2.5
		c0-0.1,0-0.1,0-0.2l3.3-1L45.9,27.9z M26.4,13c2.1,1.5,4,3.1,5.5,5c0.4,0.5,0.8,1.1,1.1,1.7l-22.8,8.5L26.4,13
		C26.3,13,26.4,13,26.4,13z M35.6,27.8l0.1,1.8c0,0.3,0,0.6,0,0.9c0,0.3-0.1,0.6-0.1,0.9l-0.1,0.9c0,0.3,0,0.6-0.1,0.9
		c-0.1,0.6-0.2,1.2-0.3,1.8c-0.4,1.2-0.6,2.4-1.1,3.6c-0.2,0.4-0.4,0.9-0.6,1.3l-22-6.3l24-7L35.6,27.8z"/>
</g>
</svg>
