<?xml version="1.0" encoding="utf-8"?>
<!-- Generator: Adobe Illustrator 25.2.0, SVG Export Plug-In . SVG Version: 6.00 Build 0)  -->
<svg version="1.1" id="Layer_1" xmlns="http://www.w3.org/2000/svg" xmlns:xlink="http://www.w3.org/1999/xlink" x="0px" y="0px"
	 viewBox="0 0 58 58" style="enable-background:new 0 0 58 58;" xml:space="preserve">
<g fill="#a0a0a0">
	<path d="M54.8,19.9H41.8c0,0-2.5-1.4-6.6-4.7S29,9.1,29,9.1s-2.2,2.7-6.2,6.1s-6.6,4.7-6.6,4.7H3.2c0,0,11.2-7.1,14.4-9.7
		C20.7,7.6,29,0,29,0s8.3,7.6,11.5,10.2S54.8,19.9,54.8,19.9z M41.2,24c0,0-1.3,0.4-3.8,4.5C34.9,32.6,29,43.8,29,43.8
		s-5.9-11.3-8.4-15.3c-2.5-4.1-3.8-4.5-3.8-4.5H4.2c0,0,5.8,2.2,8.6,6.1c1.1,1.5,3,6.3,5.9,11.3C23.3,49.3,29,58,29,58
		s5.7-8.7,10.2-16.6c2.9-5,4.8-9.8,5.9-11.3c2.8-3.9,8.6-6.1,8.6-6.1H41.2z M35.6,23.4c0-3.6-2.9-6.6-6.6-6.6s-6.6,2.9-6.6,6.6
		S25.4,30,29,30S35.6,27,35.6,23.4z"/>
</g>
</svg>
