<?xml version="1.0" encoding="utf-8"?>
<!-- Generator: Adobe Illustrator 25.2.0, SVG Export Plug-In . SVG Version: 6.00 Build 0)  -->
<svg version="1.1" id="Layer_1" xmlns="http://www.w3.org/2000/svg" xmlns:xlink="http://www.w3.org/1999/xlink" x="0px" y="0px"
	 viewBox="0 0 58 58" style="enable-background:new 0 0 58 58;" xml:space="preserve">
<g fill="#a0a0a0">
	<path d="M44.4,46.7C53,38,54.5,26.8,56,21.6c-4.5-0.4-8.3-1.2-11.6-2.2l3.6-4.2l4.8-0.9L55.4,0L42.8,7.5l0.9,4.6L39,17.5
		c-6.8-2.9-10-6.1-10-6.1s-3.2,3.2-10,6.1l-4.7-5.4l0.9-4.6L2.6,0l2.5,14.4l4.8,0.9l3.6,4.2c-3.3,1-7.1,1.8-11.6,2.2
		C3.5,26.8,5,38,13.6,46.7l-6.1,7.1c-0.8,1.2-0.5,2.9,0.7,3.7c1.2,0.8,2.9,0.5,3.8-0.7l5.7-6.6c3.1,2.2,6.8,4.2,11.3,5.7
		c4.5-1.5,8.3-3.4,11.3-5.7l5.7,6.6c0.8,1.2,2.5,1.5,3.8,0.7c1.2-0.8,1.5-2.5,0.7-3.7L44.4,46.7z M29,48.5V19.3l20.1,8.5
		c0,0-13.7,1.8-4.7,8.4C36.9,48.8,29,48.5,29,48.5z"/>
</g>
</svg>
