<svg id="Layer_1" data-name="Layer 1" xmlns="http://www.w3.org/2000/svg" viewBox="0 0 47 58">
    <g fill="#a0a0a0">
        <path
            d="M16.13,0A10.69,10.69,0,0,0,5.5,10.74V48.8A9.16,9.16,0,0,0,14.61,58H52.5V0ZM46.55,6.31v8.36s-1.42-3.85-3.16-5.55A16,16,0,0,0,38.6,6.31Zm0,25.07v8.36H38.6a16,16,0,0,0,4.79-2.81C45.13,35.23,46.55,31.38,46.55,31.38ZM24.66,18.91a35.17,35.17,0,0,0,3.91-6.13,35.17,35.17,0,0,0,3.91,6.13c1.94,2.2,6.2,4.21,6.2,4.21s-4.26,2-6.2,4.22a35.17,35.17,0,0,0-3.91,6.13,35.17,35.17,0,0,0-3.91-6.13c-1.94-2.2-6.21-4.22-6.21-4.22S22.72,21.11,24.66,18.91ZM47,51.6H14.79a3.05,3.05,0,0,1,0-6.1H47a4.85,4.85,0,0,0,0,6.1Z"
            transform="translate(-5.5)"/>
    </g>
</svg>
