<?xml version="1.0" encoding="utf-8"?>
<!-- Generator: Adobe Illustrator 25.2.0, SVG Export Plug-In . SVG Version: 6.00 Build 0)  -->
<svg version="1.1" id="Layer_1" xmlns="http://www.w3.org/2000/svg" xmlns:xlink="http://www.w3.org/1999/xlink" x="0px" y="0px"
	 viewBox="0 0 58 58" style="enable-background:new 0 0 58 58;" xml:space="preserve">
<g fill="#a0a0a0">
	<path d="M54.2,12c-1.3-0.1-3.5,0.2-5.3,0.3c-1.8,0-3.3-0.1-3.7-0.2c0.3-3.9,0.2-6.7,0.2-6.7c0-2.6-8.8-4.8-16.2-4.8
		S12.8,2.8,12.8,5.4c0,0-0.1,2.8,0.2,6.7c-0.5,0.1-2,0.2-3.7,0.2c-1.9,0-4-0.4-5.3-0.3C1,12.2,0,13.2,0,13.2s1.9,2.2,4.1,6.6
		c2,4,2.1,8.8,6.9,12.6c4.6,3.6,9.2,4.1,11,4.1c0.4,0.5,0.7,1,1.1,1.4c1.7,2.2,3,3.4,3,5.4c-0.1,5.7-6.4,3.8-7.7,7.5
		c-0.8,2.2-1.1,3-1.1,3s2.4,1.3,5.8,2.3c3.4,1,5.9,1,5.9,1s2.5,0,5.9-1c3.4-1,5.8-2.3,5.8-2.3s-0.3-0.8-1.1-3
		c-1.3-3.7-7.6-1.9-7.7-7.5c0-2,1.2-3.3,3-5.4c0.4-0.4,0.7-0.9,1.1-1.4c1.9,0,6.5-0.5,11-4.1c4.8-3.8,4.9-8.6,6.9-12.6
		c2.3-4.5,4.1-6.6,4.1-6.6S57,12.2,54.2,12z M11.5,24.9c-1.1-2.3-2.2-6.9-2.2-6.9h4.4c0.6,3.6,1.7,7.4,3.5,10.5
		c1,1.7,1.8,3.2,2.7,4.6C19,33.1,15.2,32.7,11.5,24.9z M29,8.9c-5.5-0.1-9.9-1.1-9.9-2.4c0-1.3,4.4-1.9,9.9-2c5.5,0.1,9.9,0.8,9.9,2
		C38.9,7.8,34.5,8.8,29,8.9z M46.5,24.9c-3.7,7.7-7.5,8.2-8.3,8.2c0.8-1.3,1.7-2.9,2.7-4.6c1.8-3.1,2.8-6.9,3.5-10.5h4.4
		C48.7,18.1,47.6,22.7,46.5,24.9z"/>
</g>
</svg>
